<svg xmlns="http://www.w3.org/2000/svg" viewBox="0 0 575.73 149.37"><defs><style>.cls-1{fill:#fff;}</style></defs><title>JH_bcuz-white-paw</title><g id="TigerPaw"><path id="_R_" data-name="(R)" class="cls-1" d="M98,144.12h.51c.53,0,.7-.15.7-.46s-.13-.42-.63-.42H98v.88Zm0,1.57h-.43v-2.81h1.07c.67,0,1,.25,1,.8a.74.74,0,0,1-.73.78l.8,1.23h-.48l-.74-1.22H98v1.22Zm.52-3.44a2,2,0,1,0,2,2,2,2,0,0,0-2-2Zm0-.39a2.43,2.43,0,1,1-2.47,2.42,2.42,2.42,0,0,1,2.47-2.42Z"/><path id="Body" class="cls-1" d="M82.69.38c-.16.44.1.78.16,1.1-.17,0-.25.29-.32.31-.56.19-1.29-.15-1.88,0-.31.07-.76.72-1.09.78-.73.15-1.12-.33-1.73.16A13.64,13.64,0,0,0,76.74,5.4c-.18-.1-.3.06-.48,0s-.4-.54-.62-.63c-1.44-.58-1.38.6-2,1.1-.24.17-.65.17-.94.31l-.16-.63c.19-.17.71-.36.79-.62s-.08-.47,0-.63C73.15,4.19,73,4.21,73,4A4.92,4.92,0,0,1,72,4c-.15.21-.56.52-.62.78s.06.36,0,.47-.73.29-.79.47a2.46,2.46,0,0,0,.32,1.72h-.32A1.74,1.74,0,0,0,70,8.69c0,.12.42.37.47.47s.07.55.15.62.37,0,.47.16a9.44,9.44,0,0,0-.47,1.57c-.08-.06-.38,0-.47,0-.41-.87-.51-.55-.31-1.88-.16-.08-.49-.44-.63-.47-.47-.13-1.11.13-1.56,0-.16-.05-.25-.57-.48-.63s-.75.12-.62.16c-.19.33-.42.65-.63,1.09,0,.05-.3.12-.31.16-.1.26,0,.76-.16.94s-.79.07-1.1.31-.65,2.45-.31,2.67.77,0,1.1-.16.11-.3.15-.62l.47.15a7.13,7.13,0,0,0-.15,1.1c-.17,0-.25.29-.32.31-.47.16-1.23-.12-1.72,0l-.16.32c-.25.16-.48,0-.78.15a19.09,19.09,0,0,1,.47-2c-.29-.13-.08,0-.16-.32-.75-.06-1.41-.3-1.88.32a2,2,0,0,0,0,2.35c-.31.37-.85.81-.94,1.41,0,.18.1.61,0,.78a5.65,5.65,0,0,1-.78.16,7.36,7.36,0,0,1-.16,1.09,4.48,4.48,0,0,1,.63.16c.17.14.15.66.31.78a7.29,7.29,0,0,0-2.51.47c-.39.3.21,1.89,0,2.51-.11.33-.61.66-.78.94a25.17,25.17,0,0,1-2,3c-.13.16-.54.31-.62.63-.49,1.92.47,1.23.94,1.41.11,0,.61.5.78.62-.29.62-1,1.59-.47,2.51.09.17.53.26.63.47s-.22.11-.16.47c.15.92,1.18.94,2,.94-.09,0-.6.46-.63.47-1.51.45-1.29-.21-1.88,1.26a3.37,3.37,0,0,0-2.66-1.41c-.12.24-.29.3-.47.47.28.71.29,1.05.62,1.72a4.68,4.68,0,0,0-.94.63c-.17.21-.12.6-.31.78s-.44,0-.63.16a4,4,0,0,0-.62.78,2.22,2.22,0,0,1,0,.63,3.38,3.38,0,0,0,1.88.15c-.09.18.07.29,0,.47L52,40c-.33.52-.17.82-.31,1.57a3.69,3.69,0,0,1,.63.31c.44.61.67,1.12,1.09,1.73-.31.2-1.14.56-1.25.94s.08.51,0,.78a9,9,0,0,1,1.57.47c.09,0,.32.43.47.47s.5-.07.78,0c-.09.36-.18.71-.31,1.25-.39,0-.44-.3-.94-.15-.1,0-.33.39-.47.47.59,1.11-.08.81,1.56.94.16.41.33.89.47,1.25h.16c.12.66-.21.89-.16,1.57s.54,1.69.63,2.19-.12.75,0,1.1c0,.06.28.14.31.31,1.3-.46.4.27,1.26-.78.17.08.28-.07.47,0s.37.45.47.47c.67.15.77-.29,1.41,0s-.07.78-.16,1.1c0,.17.07.45,0,.62,1.16.83,1.58,1.31,3.29,1.26a3.54,3.54,0,0,1,.32-.79c.11-.16.51-.17.62-.31v1.72c0,.2.91,1.26,1.1,1.57.42,0,.82,0,1.25,0,0-.1.23-.61.32-.62,1.41-.32,1.79,1.21,2.51,1.41.44.11.7-.09,1.09-.16.15.19.23.7.47.78s.47-.09.63,0c0-.16.29-.25.31-.31.09-.27-.08-.52,0-.78a6.37,6.37,0,0,1-1.09-.16c-.28-.12-.4-.86-.63-.94h-.31c-.09-.17.08-.47,0-.63.1-.17.37-.43.47-.63.2.19.64.22.78.47s0,.47,0,.63.49.43.63.63c.3-.06.63.07.94,0,.54-.13.67-.76,1.41-.78s1.64.77,2.82.47c.8-.22.6-1.25,1.1-1.57s1.31-.1,2-.32c.17,0,.44-.38.63-.47a2.15,2.15,0,0,1,0-.62c.08-.17.36-.11.47-.32.73.24,1.67.75,2.51.32.2-.11.3-.66.47-.79s.45-.06.63-.15.46-.55.62-.63a6.74,6.74,0,0,1,1.1-.31,4.07,4.07,0,0,0,.16-.94c-.06-.24-.59-.45-.63-.63-.12-.46.2-.4.16-.78a2.66,2.66,0,0,0,.47-.63,3.43,3.43,0,0,0,1.88,0c.34-.17.24-.52.47-.78a6.79,6.79,0,0,1,1.41-.94,5.41,5.41,0,0,1-.16-1.42c.06-.35.63-.68.78-.94s.15-.58.32-.94a2.73,2.73,0,0,1-.47-.31c-.08-.18.08-.3,0-.47,1.25-.89,1.48-1.36,0-2.19.93-.49,1.74-1,2.66-1.41a3,3,0,0,1,0-.79c-.18-.09-.45-.41-.63-.47-.62-.19-1,0-1.41-.31-.16-.14-.09-.52-.15-.79-.35.13-.24-.43-.32-.62,0,0,.88.06.63.15,1-.11,2.77-.24,1.88-1.56-.08-.13-.59-.19-.63-.32-.09-.3.28-.75.16-1.25s-.68-.47-.78-.63c-.33-.49-.47-.63.15-.94-.07-1.07-.13-1,.47-1.56a1.85,1.85,0,0,1,.47,0,3.9,3.9,0,0,1,.16-1.1l.94-.47a3.18,3.18,0,0,1-.31-1.73c0-.12.44-.5.47-.62.06-.36-.22-.23-.16-.47l-.63.15c-.39,1.32-.24,1.78-1.09.63-.42,0-.37.2-.63.31,0,0,0-1,0-1.25,1.25-.29.78-.07,1.41-.94.14.1.3-.06.47,0s.2.54.31.63c.73.51,1.7.16,2.36,0-.08-.31.08-.65,0-.94s-.58-.55-.63-.79-.09-.86.15-.78v-.31c0-.1-.45-.42-.46-.47s0-.39,0-.47a2.7,2.7,0,0,0,1.88-1.73l.31-.31c0-.34-.27-.6-.16-1.1.06-.27.58-.61.63-.94s-.26-.73-.16-1.25c.07-.32.71-.85.79-1.1s-.06-.75,0-1.1c-1-.6-1-.34-1.1-1.88.25-.16.09-.13.16-.47h.31c0,.32,0,.79,0,1.26,0,0,.87,0,.63-.16a3.31,3.31,0,0,1,.47-.94,3.69,3.69,0,0,0,0-.47c-.07-.26-.47-.56-.63-.78.13-.21.36-.45.47-.63a7.36,7.36,0,0,0,.47-.79c.17-.74-.3-1.36-.31-1.72,0-.63.38-.95.31-1.72l-.31-.47c-.36-1.74-.08-1.47-1.73-1.88-.07.31-.24.89-.31,1.25-.3.08-.2-.14-.31.16-.55,0-1.25-.14-1.57-.16a6.24,6.24,0,0,0-.31-2.66c-.46-.11-1.23-.54-1.89-.32-.11,0-.3.39-.47.47a6.73,6.73,0,0,1,0,1.1h-.31c-.16-.33,0-.5-.16-.78s-1-.73-1.09-1.26c-.16-.88.43-.91.31-1.72a9.08,9.08,0,0,0-1.57-2c-.86-.19-1,.4-1.41.63s-1.1.4-1.56.62c.25,1,.85,3-1.1,2.51-.69-.15-.5-.63-.79-1.25,0-.1-.45-.21-.46-.32-.15-.72.38-1.34,0-2-.23-.4-.79-.28-1.26-.47,0,.09-.44.22-.47.31ZM36,20.13c-.23.22,0,.79-.16,1.09a1.59,1.59,0,0,1-1.57.47s-.29-.83-.78-.94a4,4,0,0,0-1.25.16l-.16,1.26-.78.94.47.15a8.22,8.22,0,0,1,.62,1.26c-.16-.08-.45.05-.62,0-.54-.19-1.13-1.78-1.73-2a15.22,15.22,0,0,0-3-.47,2.21,2.21,0,0,1-.62.47V23c.19.05.25.39,0,.31,0,0-.14-.26-.16-.31-.44,0-1,0-1.41,0a5,5,0,0,1-1.1,2.19c-.19-.14-.44,0-.62-.15a4.16,4.16,0,0,1-.32-.63c1.06-.29-1.77.06-.62.16-.26.07-.44,0-.63.15l-.94,1.1c-.25.44-.12,1.27-.63,1.57a4.4,4.4,0,0,1-1.1.15c-.76,2-.66.68-1.88,1.26-.2.09-.29.63-.47.78s-.45.06-.62.16l-.16.31a3.47,3.47,0,0,1-2,.31,6.15,6.15,0,0,1-.31,1c-.27.42-.83.34-1.25.62s-1.82,2.38-2.2,2.51A6.07,6.07,0,0,0,9,34.23a14.56,14.56,0,0,0-2,.47,13.41,13.41,0,0,0,.16,2c-.36-.09,0,.18-.31.16l-.32-.32a1.3,1.3,0,0,0-1.25.63c-.26.54,0,1,0,1.57a3.29,3.29,0,0,1,.94,0c-.14,1.79,0,1.81-1.57,1.72a2.61,2.61,0,0,1-.47.47c.18.62.14.9.32,1.57-.07,0-.68.12-.94.16,0,0,.06-.82-1.57.31.23,1.73-.57,2.33-.31,4.23-.47.27-1,.67-1.42.94.06.28,0,.51,0,.78s.57.92.63,1.42a2.91,2.91,0,0,1-.16,1.41l-.31.15a11.09,11.09,0,0,0,.31,3c.2.06.41,0,.47.16s-.08.46,0,.62c-.11.14-.53.32-.62.47-.51.83,0,1.57-.16,2.51l-.31.16v.31a2.12,2.12,0,0,0,0,1.26c0,.09.38.22.47.31V61c1.62.12,1.63.13,2.51-.94a4.38,4.38,0,0,0,.47.16c-.07.22-.3.52-.32.63a3.36,3.36,0,0,0,.16.94c.07,0,.44.22.47.31a6.52,6.52,0,0,1,0,1.25c-1.44-.66-2.37-.53-1.72,1.26.07.22,0,.35.15.47s.72,0,1.1.15c.1,0,.37.61.47.63,1,.19,1.41-.84,1.72-1.41.18.09.43.3.63.31-.54,1.09-.33.93,0,1.88a2.46,2.46,0,0,0,0,.47c-.08-.23-.17.41-.16.47.2.94,1.49.85,2.35.79,0,.08,0,.38,0,.47-.16.42-1.19.87-1.56,1.1.09.26-.1.51,0,.78a4,4,0,0,0,1.09.94,4,4,0,0,0,2.2-.47c.14-.08.4-.59.63-.63.49-.08.67.2,1.09.32,0,0,0,.44,0,.47-1.95.21-2.47.7-1.41,2.19.84-.22,1-.1,1.88-.31.07.51.21,1.53.63,1.72s.77,0,1.1,0c1.66.23,1.7,1,2.82-.63a3.72,3.72,0,0,0,1.88,0l.31-.31c.53-.07,1.06.28,1.41.31s.6-.15.94-.15c.1-.4.18-.74.32-1.26a8.66,8.66,0,0,0-.79-.47v-.31a16.28,16.28,0,0,1,1.57-.78,2.7,2.7,0,0,1,1.88,0l.31.31c.81.12,1.21-.39,1.73-.47.35-.06.92.14,1.25,0,.48-.21.45-1.19.78-1.57s1.14-.6,1.57-.94c-.15-.38.47,0,.47,0,.22,1.43,0,1.19,1.41,1.41.24-.44.62-1.39,1.26-1.41.27,0,.08.22.47.16.07.22-.09.56,0,.78s.39.31.47.47c.17-.07.44,0,.62,0,.49-.13.76-1.27.94-1.72,1.76-.08,1.39.09,2-1.1a7.15,7.15,0,0,0,1.73,0c0-.17.28-.25.31-.31.12-.34-.12-.76,0-1.1s.75-.54.94-.78.23-.73.47-.94c.46-.42,1.18-.44,1.41-1.1.12-.35-.07-.73,0-1.1,0-.18.45-.75.47-.94.12-1.19-.57-1.3-1.25-1.72-.21.27-.42.51-.63.78.39.08-.47.32-.47.32.15-.85-.12-.83.78-1.41.37-.24.6-.22.94-.48.11-.08.19-.41.32-.47.53-.25,1.18,0,1.72-.31.25-.14.12-.63.31-.78-.24-.45,0-.52-.47-.79a5.28,5.28,0,0,0-.78-.31c.17-.11.28-.55.47-.63.45-.18.91.05,1.25-.15s.11-.49.32-.79.66-.29.78-.47A7.11,7.11,0,0,0,47,51.47c-.06-.25-.55-.45-.63-.62-.17-.37,0-.62-.16-1.1.21,0,.23-.3.32-.32.33-.08.45.27.62.32,1,.21,1.16-.34,1.57-.63a15.57,15.57,0,0,1-.16-2c-.74-.37-1.05-.14-1.09-1.25s.53-1,.63-1.41a2.57,2.57,0,0,0-.16-.94c-.12-1.38.38-1.52,0-2.82a2.55,2.55,0,0,1,.78,0c.47-1,.41-.59.16-1.73-.21-.06-.5,0-.63-.15a11.14,11.14,0,0,1-.94-1.26C48,37,48.43,36.45,49.15,36c-.08-.28.08-.52,0-.79,0-.09-.43-.46-.47-.62-.15-.68-.07-1.12-.16-1.73.18,0,.86.12,1.26.16a5.38,5.38,0,0,0,.16-.94c0-.08-.75-2-.79-2s-.62-.21-.78-.31c.23-.73.76-2-.16-2.35-.27-.1-.52.09-.78,0a5.25,5.25,0,0,1-.32.78c-.78,1.37-.13.09-.78.31a4.22,4.22,0,0,0,0-.94,2.26,2.26,0,0,0,.31-.15c.07-.23.16-.2.32-.32a7.5,7.5,0,0,1-.32-.94,4.07,4.07,0,0,1-1.56.47s-.39-.45-.47-.47-.46.07-.63,0c-.12.12-.49.74-.63.79s-.47-.09-.62,0c.54,0-.31-2-.32-2a4.45,4.45,0,0,0,1.41-.78,4.22,4.22,0,0,1,0-.94A4.35,4.35,0,0,0,42.1,23a1.18,1.18,0,0,0-.47-.63,5.9,5.9,0,0,1-1.25.79c-.19,1.59-.09,1.57,1.25,1.56a6.58,6.58,0,0,0-.47,1.73A4.84,4.84,0,0,0,39.59,25h-.15c-.27-.55-.08-1.31-.16-1.88.33-.07.29,0,.47-.16s.76-.38.94-.63.13-.65,0-.47c0,0-.23-.58-.31-.63-.75-.38-1.88.16-2.51,0-.45-.11-.68-1.11-1.1-1.25h-.31c-.09.15-.37.05-.47.16Zm97.17,2c-.18.26-.08.42-.16.78-.72-.19-1-.13-1.73-.31-1,2.05-.61,1.47-3,1.56l-.79.32c-.12,0-.28-.14-.15-.16-.22-.1-.57.09-.79,0s-.23-1.08-1.09-.78c0,0-.38.59,0,.47l.15.94c-.72.51-.6.32-1.09,1.09a2.53,2.53,0,0,1-.94-.31c-.6-.4-.28-.74-.16-.63,0-.34.46-.33.31-.94,0-.14-.54-.34-.63-.47s-.08-.37-.15-.62c-.06,0-.55-.12-.79-.16a11.68,11.68,0,0,0,0,2.51,10,10,0,0,0-1.88.15c-.22.07-.71.76-.94.94a2.55,2.55,0,0,0-.78,0,8.14,8.14,0,0,1-.16-.94,3.16,3.16,0,0,0-1.88-.31c-.1,0-.42.45-.47.47h-.31c-1.14,1.11.62,1.36,1.25,1.72.2.12.43.51.63.63a5.73,5.73,0,0,0-.63.47,2.65,2.65,0,0,0-2.66-.63c-.27.09-.52.56-.79.63s-.64-.06-.93,0c-.17-.62-.51-1.86-1.26-1.88-.24,0-.46.25-.78.31,0,.17-.3.25-.32.32a6.78,6.78,0,0,0-.15,1.41,21.78,21.78,0,0,1-3.29.78c-.23.62-.39,1-.63,1.57h-.31v-.32c-.27-.75-1-.42-1.57-.31a6.69,6.69,0,0,1-.94,2.35c-1.34-.44-1-.42-2,0a4.92,4.92,0,0,1,0,.94l.47.16v.47a8.42,8.42,0,0,0-1.88,0c-.06.35-.44.31-.31.94,0,0,.49.61.47.63-.45.18-.67,1.25-.79,1.72a7.05,7.05,0,0,0-2.82.94c.06.35-.12.76,0,1.1s.89.52,1.1.78.3,1,.63,1.26.7,0,.94,0c0,0,.16.28.31.31,0,0-.28.93-.16.94a4.91,4.91,0,0,0-2.35.16c.07-.74.25-1.8-.47-2-.17-.07-.46.07-.63,0,0,.17-.29.24-.31.31-.25.73.34,1,.16,1.73-.1.37-2.24,2.13-2.67,2.66.19.18.08.29.16.63.38.1,1,.39,1.41.47-1.8.44-2.69,1.08-1.88,2.82-.54.39-1.89,1.84-1.72,2.82,0,.21.57.47.62.63s-.07.46,0,.62a14.67,14.67,0,0,0-2.19,1.73c-.11.28.06.64,0,.94a3.76,3.76,0,0,1,.63.15c.11.07.06.42.15.47-.25.43-1,1-1.09,1.41-.19.66.29,1.84-.32,2-.35.11.47.94.47.94v.16a3.23,3.23,0,0,1,.47.63,2.61,2.61,0,0,0,.47.47c-.33.48-1.13,1.3-.78,2.35,0,.11.39.3.47.47a7.87,7.87,0,0,1,1.1-.16V67a17.66,17.66,0,0,0,.15,1.88c.1.16.76.18.94.31s.17.54.32.63a7.52,7.52,0,0,0,1.41.47,5.89,5.89,0,0,0,0,1.57c.16.46.91.42,1.41.62.16-.23.44-.39.62-.62a4.67,4.67,0,0,0,.32-.63A5.19,5.19,0,0,0,97,72.94c.55.43,1.13.26,1.88.16-.07.11,0,.35,0,.47s-.65.65-.78.78a5.17,5.17,0,0,1,.31.79,11.73,11.73,0,0,1,1.57,0c.24,0,.63.45,1.25.31.14,0,.49-.58.63-.63s.46.07.63,0c.89,1.27.31,1.34,2.19,1.73.53-.75,1-2.35,2.51-2,.09,0,.46.59.63.63.58.12.9-.34,1.56-.16.16,0,.33.54.47.63s.51,0,.79.15.18.54.31.63a6.58,6.58,0,0,0,2.82.79c.27-.09.44-.71.79-.79.83-.21,1.22.36,2,.16.56-.14.91-1.23,1.1-1.73,2.14.29,1.43.05,2.66-.78.25-.18.56-.14.79-.31s.31-.58.47-.63c.63-.21,1.38.16,2,0,.27-.07.55-.48.78-.63,0-.26-.17-.7-.16-.78-.37-.17-.77-.47-1.1-.63a12,12,0,0,0,1.57.16c.56-.09,2-1.16,2-1.72s-.72-1.14,0-1.42c.38-.15,1,.07,1.41,0a9.88,9.88,0,0,0,1.41-.62,3,3,0,0,1,0-.79c-1.07-.5-1.27-.54-2.35.16l-.16.31c-.55.1-.44-.28-.78-.31,0-.24.16-.73.16-.78,1.23.12,1.84.12,2.5-.63,1.19-1.33.52-1.71-.94-2.19.09-.18-.07-.29,0-.47s.57-.46.63-.63-.07-.46,0-.63h.31a4.41,4.41,0,0,1,0,.63c.21.1.37.1.47.31.84-.28,2.26-.83,2.35-1.72.14-1.34-1.49-1.31-2.35-1.25a4,4,0,0,0,.32-2.51,4.73,4.73,0,0,1,.94-.16c0-.17.29-.25.31-.31.29-.84,0-.8.47-1.41a6,6,0,0,1,.78-.63c0,.14-.3.54-.31.63-.08.52.29.65.16,1.09-.06.16-.66.51-.79.63a2.91,2.91,0,0,1,0,.78c.77.15.7.71,1.57-.15.28-.29.16-.52.32-.94.14.09.46-.07.62,0s.27.65.32.78c.62-.3,1.43-.37,1.72-.94.07-.14.48-2.23.47-2.35s-.43-.5-.31-1.1c0,0,.71-1.24.78-1.41-.54-.14-.67-.35-1.25-.47.08,0-.09-.42,0-.47a2.35,2.35,0,0,1,.78-.15,4.8,4.8,0,0,1,0-1.26c0-.13.51-.38.63-.47-.37-.78-.46-1.23-.79-2,.34-.16.64-.1.94-.31.13-.09.33-.57.47-.63.5-.2,1,0,1.41-.15s.49-.48.94-.47c1,0,1.17,1,1.41,1.72a2.79,2.79,0,0,1,.63-.31,6.53,6.53,0,0,1,.16-1.88c0-.19-.15-.41-.16-.32v-.47l1.57-1.25c-.06-.3.08-.65,0-.94l-.31-.31S143,41,143,41a3.7,3.7,0,0,1-1.57.16c-.08,0-.34-.41-.47-.47a4.88,4.88,0,0,1,.94-1.26,16,16,0,0,1-.63-3.91c.1-.62,1.07-1.08,1.26-1.57.45-1.24-.39-4.08-1.1-4.39s-1.61.19-2.35-.16c-.23-.11-.16-.56-.31-.78-.33-.44-1-.3-1.41-.63s-1-2.3-1.57-2.5c-.17-.07-.33.09-.47,0-.28,1.56-.23,1.5-1.72,1.88a8.19,8.19,0,0,0-.32-.79c-.12-.17-.73-.3-.78-.47-.18-.58.34-.89.15-1.56-.06-.24-.61-.48-.78-.63,0,0,.14-.29.16-.31a5.23,5.23,0,0,1,1.25,0c.32.1.55.83.94.94,2,.5,1.57-1,.79-1.57a16.29,16.29,0,0,0-1.57-.94l-.31.16ZM74.54,63.85c0,.09,0,2,0,2s-.4.19-.47.31-.07.71-.16.79-.39.08-.78.15c.2.11-.37.19-.47.16s-.15-.26-.31-.31c.1-.82.31-1.74-.47-2-.32-.12-.37.22-.79.16-.13,0-.5-.45-.62-.47-1.24-.27-1.78.56-2.35.94-.16-.11-.31.06-.47,0s-.41-.68-.63-.79a3.82,3.82,0,0,0-2.51.16c-.75.4-.35,2.08-.78,2.82-.07.11-1.09.93-1.26,1.1a7.57,7.57,0,0,0-.94-.94c-1.63-.47-2.64,2.33-3.45-.63a2.23,2.23,0,0,0-.94-.16l-.15.32c-.52.33-1,1-.16,1.41.13.06-.22.17-.16.31-.34.09-.75.38-1.09.32s-.36-.78-1.26-.63A14.43,14.43,0,0,0,52.91,70a7.85,7.85,0,0,1-1.56-.16l-.16.47c-1.24.32.1-.64.31-.78,0-.24-.16-.73-.15-.79-.64-.1-.82-.07-1.41-.15,0,.2-.19.21-.32.31.16.64.16.91.32,1.41-.4.18-.93.1-1.1.47a6.1,6.1,0,0,0-.16,1.41c-.32-.1-.31.25-.62.16s-.33-.7-.63-.79a13.44,13.44,0,0,0-2.35-.15A6.93,6.93,0,0,1,43.51,75c-.07,0-.4,0-.47,0a4,4,0,0,1-.47-1.57c-.26-.07-.25.12-.31-.15-.17.08-.46-.06-.63,0s-.15.25-.31.31c0,0,0,.74.15.47,0,.15-.15.63-.15.63-.37,0-.76-.12-1.1,0s-.41.68-.63.78c-1.14.5-2.14-.16-3-.47a3.16,3.16,0,0,0-.78,1.25,7.44,7.44,0,0,0,0-1.25c0-.09-.29-.12-.31-.31-.23.08-.57-.09-.79,0s-.41.34-.62.47c-.16-.1-.32-.55-.47-.63a6.81,6.81,0,0,0-2.2-.31s-.13.28-.15.31c-.92.8-.45.61-.32,1.57l.16.62s.73,0,.47-.15c.18,0,.44,0,.63,0a4.41,4.41,0,0,0,0,.63c-.38-.08-.26.22-.63.15-.13,0-.5-.6-.63-.63a7,7,0,0,0-2.51.63c-.15.09,0,.36-.15.47s-.54.16-.79.32c-.1,0-.21.43-.31.47s-.39,0-.47,0c-.11-.29-.23,0-.31-.16a1.9,1.9,0,0,1,0-.63c-.28-.06-.09-.06-.16-.31a3.7,3.7,0,0,1-.94,0,4.49,4.49,0,0,1-1.25,1.41c-.76.39-2.55.47-3,1.1-.17.23,0,.39-.16.62-.27-.09-.12.18-.15.32-.41-.13,0,.47,0,.47.41.12.5-.17.94-.16,0,0,0,.47,0,.47-.39.11-.36,0-.79.16.24.16-.44.14-.47.15l-.15-.78c-.11-.06-.74.08-.79,0a4,4,0,0,1,0-1.25c-1.68-.38-1.14-.27-1.88,1.09,0,0-.47.46-.47.47-.13.56.23,1.06.16,1.41,0,.17-.42.32-.47.47a2.61,2.61,0,0,0-.79,0,7.36,7.36,0,0,1,.16-1.09c-.14-.11-.28-.1-.31-.32-.3,0-1.1.16-1.1.16s-.45.13-.47.16c-.22.21-.1.87-.31,1.09s-.93.19-1.26.47c-.11.09,0,.41-.15.47s-.57-.08-.79,0c.16-.07-.31-.31-.31-.31l.31-.47c.56-.17,1.11-.08,1.41-.47l.32-.47a3.36,3.36,0,0,0-.16-.94c-1.48,0-2.34.18-3.14,1.25-.13.17-.13.55-.31.63-.48.21-1-.07-1.41.16a5,5,0,0,0-.63,2.5c0,.11.4.31.47.48a4.22,4.22,0,0,1,.94,0s-.19.3-.15.31c-1.2.21-1.24.47-1.73,1.41-1.56,0-1.8.13-2.19,1.25V90c-.32.25-.92.07-1.25.31-.77.53-.16,2.73-.16,4.07.68.19,1.65.51,1.88,1.1.06.17-.1.32,0,.47a19.92,19.92,0,0,0-2.51,2.35c-.14.5.11.83.16,1.26.2,0,.52.23.94.15s.41-.48.63-.62c0,0,.69.24.47.31.09.07.41.21.47.31.17.36,0,.62.15,1.1-.21,0-.23.3-.31.47-.17-.08-.36-.43-.47-.47-.33-.11-.75,0-1.1,0a6,6,0,0,0-.62,2c0,.1.44.4.47.47.23.53,0,.54,0,1.09-.2-.1-.13.24-.47.16,0,0-.18-.28-.32-.31.62-.24-.87-.24-.47-.16l-.15.63c.62.38,1.76.65,2.19,1.25.23.33.16.84.47,1.1.49.4,1.1.17,1.25.94s-.44,1.16-.31,1.88c.07.4.78.62.94.94a7.28,7.28,0,0,1,.31,1.25c.07.71-.18,2.46.16,3.3h.16c.47.23.81,1.1,1.25,1.25h.31c.08.07.05.41.16.47.35.18.74,0,1.1.16s1.56,2,.94,2.5c.78.62,2.35,1,2.19,2.51,0,0-.41.65-.47.78.2-.1.13.24.47.16.17,0,.22-.45.32-.63.12,0,.52.07.62,0,.33.32,1.6,1.28.47,1.57-.11-.13-.31-.57-.47-.62s-.46.07-.62,0a2.61,2.61,0,0,1-.47.47s0,.57.15.31a6.45,6.45,0,0,1,.16.63c.31-.15.16,1.09.16,1.09a4.71,4.71,0,0,1,2.35-.31c0-.06.12-.31.15-.31s.77.11.63.15a11.36,11.36,0,0,0,.78,1.1c-.72.21-1.55.24-1.72.94,0,.08,0,.4,0,.47s-.57.29-.63.47.08.56,0,.78c.29-.13.53,0,.79-.15s.51-.73.78-.94c.53-.43,1.05-.67,1.57-1.1A11.8,11.8,0,0,0,20,128.89c.19.19.84.39.94.63.18.46-.19.58-.15.94l.31.47a4.34,4.34,0,0,0,.47,1.73c.17-.07.44,0,.63,0,.43-.12.9-.82,1.25-1.1,1.18,1.07,2.17,1.92,4.07.94-.1.93-.2,1.85.63,2.19.25.1.48,0,.63.16s.39,1.23.47,1.41a4.15,4.15,0,0,1,3.45.63c.24-.15.88-.86,1.25-.79,0,0-.12.76-.16.94a7.33,7.33,0,0,1,.94.63c.13.25-.06.67,0,.94s.75.76.79.94c.06.36-.23.58-.32.94a4.62,4.62,0,0,1,1.57-.31c.44.07.77.74,1.1.94s.5,0,.78.15a7.13,7.13,0,0,1,1.41,2.51,9.51,9.51,0,0,1,2.35-.47c.2,0,.54.32.94.16v-.16c.26-.13.28-.5.47-.62s.49,0,.79-.16c.47,1.55-.15,1,1.41,1.41a2.55,2.55,0,0,1,.31-.47c.18-.07.3.09.47,0,.13.11.32.54.47.63a9.34,9.34,0,0,0,2.2.31c.05.35-.13.76,0,1.1.24.66,3.14,1.2,4.07,1.41.07.27-.07.5,0,.78,0,0,1.37,1.39,1.41,1.41,1.38.62,1.42-.44,2-.63,1.25-.38,1.71.36,2.19.63.26.14.5,0,.79.16.08-.23.26-.21.47-.32-.13-.87-.08-1.35-.16-1.88.25.07.38-.08.63-.15.13.24.52,1.15.78,1.25.89.33,2.05-.29,2.66-.31,1.06-.05,1.19.34,1.73.78,1.47-.65,1.59,0,3.29-.31.16,0,.85-.46.94-.47.54-.09,1.07.21,1.41.15.15,0,.46-.39.63-.47-.08-.28.07-.51,0-.78,0-.06-1.57-2.28.47-1.72.07,0,.34.44.47.47.32.05.48-.19.62-.16-.16-.13.13-.68.16-.78-.18-.1-.07-.28-.16-.32a3.16,3.16,0,0,0-.78-.15c0-.32-.17-.47-.16-.63,0-.56,1-.85,1.26-1.26s.11-.76.31-1.09a4.75,4.75,0,0,1,2.82-1.1c.08,0,.44.46.47.47s.48-.09.63,0,.4.69.63.78.34-.07.47,0c.13-1.77.06-1.36,1.41-1.41a9.48,9.48,0,0,1,0,1.41s-.45.29-.47.32c.28,1.06-.07.75.62,1.41-.16.05-.24.29-.31.31-.24.08-.53-.07-.78,0,.25.09-.61.15-.63.16a2,2,0,0,0-.16-.47c-.78-1.16-.58-1.1-2.5-1.1a4.21,4.21,0,0,1-.32,1.1c-.17.22-.72.27-.94.47s-.15.15-.31.47v.47c.11,0,.53-.07.62,0s.12.54.16.78c-.77,0,.06,1.23.16,1.41-.52.41-.94.82-1.41,1.26.08.27.19.33.15.62,1.63,1,2,.79,2.83-.78.1.13.51.17.62.31s0,.43.16.63c.63,1,1.4.53,2.19.16a4.8,4.8,0,0,1,.16-2.2c.15.09.46-.07.63,0s.44.86.78.94c1.18.3,1.35-.59,1.88-.94.28-.18.5,0,.78-.15s.54-.61.79-.79c.13.06.34,0,.47,0s.44.54.63.63c.52.24.82,0,1.41,0a2.94,2.94,0,0,1,.31-.47c.21-.85-.49-1.26.16-1.72.16.07.45-.07.62,0s.29.65.47.78c.84.61,1.53,0,2.2-.31,0-.46,0-1,0-1.41-.36-.15-1.29-.43-1.41-.79-.07-.17.07-.46,0-.63.4.12.34-.25.78,0s.21,1,1.25.95A2,2,0,0,0,94,141.43s.39-.21.16-.31a1.1,1.1,0,0,1-.47-1.1c0-.07.43-.26.47-.31.37-.49.28-.87.47-1.57-.14-.11-.28-.09-.31-.31a2.46,2.46,0,0,1-.47,0v-.47c2.14,1,2.38.11,4.39-.47a6,6,0,0,1,.15-1.26c.07-.18.57-.4.63-.62s-.06-.63,0-.94c-.14-.12-.26-.11-.31-.32a2.61,2.61,0,0,1-.79,0c-.1-.05-.25-.59-.31-.63.15,0,.37-.24.47-.31.87.58.53.51,1.72.47,0-.38.19-.25.16-.62,0-.17-.46-.57-.47-.63-.11-.56.25-.7.31-.94s-.08-.65,0-.94.59-.65.79-.94c-.07-.12,0-.36,0-.47-.09-.36-.81-.61-1.1-.79a18.64,18.64,0,0,0,1.1-3.29c-.14,0-.42-.3-.47-.31-.94-.21-1.4.74-1.88,1.1a2.29,2.29,0,0,0-.32.47c-.07-.32-.17-1.07-.31-1.57,0-.13-.45-.5-.47-.63-.15-.93.76-1.06.94-1.72v-.16c0,.12-.2-.46-.16-.63s1.29-2.41.63-2.82c-.93-.58-1.5.34-2,.47-.09,0-.39,0-.47,0,0-.17-.29-.25-.31-.31a7,7,0,0,1,0-1.88c.08.28.15-.16.15-.16-.53-1.18-.42-.88-1.72-.78-.14.54-.47,2.55-.94,2.82s-.89,0-1.25.16c-.08,0-.44.46-.47.47-.35.07-.46-.2-.63-.16.18,0-.16-.47-.16-.47,0-.57.58-1.54.63-1.88A4.33,4.33,0,0,0,91,115.1l.15-.47c.3.07.65-.1.94,0,.74.25.48,1.65,1.73,1.1s.49-1.89.15-2.66c-.82.06-1.17,0-1.88.15a2.36,2.36,0,0,0,0-1.88,5.88,5.88,0,0,1-.78-.31s-1,1-.78,1.09c.67.21.31,2,0,2.51s-1,.61-1.41.79c.11-2-.06-1.58,1.25-2.83-.19-.57-.14-.72-.31-1.25.07-.06.42-.22.47-.31.13-.31-.14-.46.15-.63,0,0-.29-.82-.31-.94.16.1.47.05.63.16s.21.43.31.47.75-.12.63-.16c0-.09.43-.22.47-.31.16-.48-.17-1.26,0-1.73s1-.2.78-1.25c-.06-.35-.7-.72-.94-.94.47-1,.47-.61.16-1.57-.23-.7-.44-1.46-1.1-1.72-1.71-.68-1.94.29-1.72,1.72-.12.08-.75.36-.79.47v.32h-.31c-.12-.43,0-.72-.31-1l-.16-.15c.07-.08,0-.37,0-.47h.16c.6-.31.84-.9,1.25-1.41-1.54-.28-1.54-1-2-2.67.37-.17,1.17-.77,1.57-.78.83,0,.64.44.94.63s.47,0,.78.15a7.36,7.36,0,0,1,.63-.47c-.12-.46,0-.77-.16-1.09a6.15,6.15,0,0,0-.62-.32c-.15-.59.43-.57.31-1.25-.06-.35-.61-.54-.78-.79s0-.43-.16-.62c-.27-.44-1-.69-1.41-.94.07-.31-.09-.65,0-.94s.6-.56.63-.79c.08-.87-.83-1.33-1.41-1.56-.32-.13.43-.35.62-.32l.32.32c1.39.37,1.13-1,1.09-1.73-.2,0-.22-.28-.31-.31-.76-.27-1.76.6-2.19.78l-.32-.47c0-.09.44-.22.47-.31a3.29,3.29,0,0,0,0-.94c.24.1.09-.26.47-.16.07,0,.23.42.32.47.79.5,1.12.1,1.72-.31-.64-1.59-.66-2.22-2.51-1.26a2.46,2.46,0,0,0,0-.47c.62-.27.93-.22,1.26-.78,0-.07.22-.12.31-.16-.07-.17.06-.45,0-.62s-.71-.61-.78-.94c-.21-.91.13-1.58,0-2.51.15.09.3-.26.62,0s0,1.58,0,2.19c.3,0,.57.2,1.1,0,0,0,.11-.3.16-.31s.44-.41.31-.94c0,0-.33-.36-.31-.47s.69-.39.62-1.25c0-.52-.57-.37-.31-1.1,0,0,.42-.39.47-.47s0-.41-.16-.16c-.09,0-.17-.57-.31-.63a4.75,4.75,0,0,0-1.25,0v-.31h.15a3.71,3.71,0,0,1,.16-.78c.67-.6,1.4.07,2.19-.16.09,0,.32-.4.47-.47a2.22,2.22,0,0,1,0-.63,5.41,5.41,0,0,0-1.72-1.41,3.29,3.29,0,0,0,0-.94c-.19-.31-.49-.09-.78-.31s-.52-1.11-.63-1.57c-.17,0-.25-.29-.31-.31-2-.68-1.23,1.59-.94,2.35-.28.09-.29,0-.47.16-.61.48-.53.41-1.41.15.11-.19-.33-.21-.16-.31.88-.53.52-1.54.47-2.82l.47-.16c.79-1.39.15-1.3-1.26-1.25.11,1.57.34,1.13-.93,1.41a2.45,2.45,0,0,0-2.67-1.41,6.28,6.28,0,0,1-.31.78c.06.1.44.41.47.47s0,.67,0,.79a3.85,3.85,0,0,0-.94.15,16.65,16.65,0,0,0-.79-3A4.55,4.55,0,0,0,81.28,67a2.78,2.78,0,0,1-.16-.79c-.1,0-.8-.1-.62,0-.48.26-.51,0-.79.47a5.74,5.74,0,0,0-.31.94c-.18,0-.62-.16-.63-.15s-.18-.39-.31-.47c-.17.11-.26-.27-.31-.32,1.16-.65,1.2-.45.94-1.72-.2,0-.23-.28-.32-.31s-.73.12-.62.15h-.32c-.23.08-.21.69-.47.79s-.47-.09-.62,0c-.2-.73-.48-1.8-1.1-2-.17-.07-.32.1-.47,0-.08.13-.49.24-.63.31Zm65.82,7.84s.12.45.16.63c-.17,0-.25.29-.31.31a8,8,0,0,1-1.26.16c-.11,1.46-.53,2.12-.47,3.29-.62-1.17-1.06-1.08-2-.32-.15-.18-.27-.67-.47-.78-.51-.28-2.75-.14-3.61-.31,0,.16-.29.24-.31.31a8.1,8.1,0,0,0,0,2.2,3.26,3.26,0,0,0-.32.15c-.11-.23-.29-.31-.47-.47.41-1.34,0-3.13-1.56-2-.2.14-.14.63-.32.79a3.26,3.26,0,0,1-.78.31c.11.44,0,.73.16,1.1.3.55,1.66.47,1.88,1.1.09.26-.1.51,0,.78a1.85,1.85,0,0,0-.47,0,3.14,3.14,0,0,1-.94-1.41,12.57,12.57,0,0,1-2-.16s-.38-.45-.47-.47c-.59-.1-.8.37-1.41.16-.07,0-.15-.29-.31-.32.82-.47.75-.39.62-1.56l-.47-.16c-.13.19-.36.15-.47.31s0,.69-.15.79c-.38.29-.93-.07-1.26.47a12.47,12.47,0,0,0-.47,1.72c-3-.89-1.9,1.4-3.76,1.41,0,0-.39-.14-.47-.15v-.32a2.91,2.91,0,0,1,.78,0c-.07,0,.14-.27.16-.31-.16-.13-.24-.08-.31-.31a8.43,8.43,0,0,0-2-.32c-.29,0-.7.64-.94.79-.59.33-1.22.31-1.88.62-.12,0-.32.44-.47.47-.53.1-.66-.31-1.1-.15a3,3,0,0,0-.31.47c-.57.71-.43,1,0,1.88l-1.26.31c.08-.17-.06-.45,0-.63a4.25,4.25,0,0,1,.47-.31c-.09-.27.1-.52,0-.78,0-.1-.4-.32-.47-.47a4.16,4.16,0,0,1-.94.15c-.07.63-.24,1.72-.31,2.35a4.92,4.92,0,0,0-.94,0c.08.22-.08.56,0,.79s.85.48,1.1.62c0,0-.07.88-.16.63-.1.16.06.29,0,.47s-.39.32-.47.47h-.31a6.63,6.63,0,0,0-.63-1.25c-.71-.94-.58-.38-1.72-.79,0,0-.27-.45-.32-.47-.27-.09-.52.1-.78,0-.08.17-.44.36-.47.47-.15.45,0,.92-.16,1.26-.31.54-1.06.33-1.57.62s-.93,1.73-1.09,2.51c-1.25-.59-.49-.59-1.73,0,.06.27-.08.36-.15.63a2.33,2.33,0,0,0,1.41.63c-.06,0,0,.57-.16.62a2.55,2.55,0,0,1-.78,0c-.09.18-.44.46-.47.63-.15.63.28,1.28.31,1.72s-.17.47-.16.63h-.31c-.33-.11-.62-1-.94-1.1-.5-.14-.55.18-.94.16-.4,1.35-.51,1.24.47,2-.32.28.07,2,.16,2.66-.24-.23-.55-.4-.79-.63.33,0-.85-.13-.47,0-.18.16-.45,0-.62.16v.32c-.49,1.41.44,1.58.94,2.82-.06,0,0,.4,0,.47s-.84.41-.94.62,0,.47,0,.63a6.93,6.93,0,0,1-.47.78c-.08.3.06.64,0,.94a8.28,8.28,0,0,1,1.09.94c.17.26.11.58.32.79s.59.21.78.47a12.41,12.41,0,0,1,1.1,3.13,2.71,2.71,0,0,1,.78.16c-.07.06-.11.4-.16.47s-.67.27-.78.47c-.28.48,0,1.71,0,2.51.29.12.07,0,.16.31a7.59,7.59,0,0,0,1.72,0c-.07.17,0,.45,0,.63-.14.49-1,.86-.47,1.72.08.13.58.17.63.32.22.74-.53,1.16.15,1.56a6.37,6.37,0,0,0,1.1.32,3.17,3.17,0,0,0,0,1.88c0,.09.44.21.47.31.1.37-.15.9,0,1.25,0,.09.23.08.32.16.42.37.82.31,1.25.63.15.11,0,.29.16.47.61,1,1.44.43,2.19,0a21.52,21.52,0,0,1-.31,2.51,5.23,5.23,0,0,0,.78.15c.43-.28.93-.18,1.1-.78,0-.17-.09-.49,0-.63s.57-.06.62-.16c.06.13,0,.34,0,.47s.46.43.47.48c.06.24-.21.9-.15.94-.1,0-.3.26-.32.31a2.45,2.45,0,0,1,0,.47,3.19,3.19,0,0,0,2.2.31c0,.1-.07.75,0,.79-.13.18-.45.31-.63.47a2.57,2.57,0,0,1,0,.62c.23.09.21.26.31.47a2.64,2.64,0,0,0,1.41-.47,3.92,3.92,0,0,0,.79-.47c.27-.4.06-.86.47-1.09.19-.12.55,0,.78,0l.32-.32c.81-.19.51.07,1.09.16a3.7,3.7,0,0,0,0,.94c-.43.16-.89.32-1.25.47,0,.26.16,1.1.16,1.1a2,2,0,0,0,.94.15c.21,0,.57-.5.78-.62,1-.62,1.54-.25,2.66-.63.07,0,.15-.28.32-.31-.07-.35.14-.79,0-1.1H120c-.28,0-.57-.36-.78-.47a4.92,4.92,0,0,0,0-.94c.14-.12.22-.47.47-.47h.15c.3.28.67,1,1.1,1.1.18,0,.45-.07.63,0-.19.57-.13.79-.32,1.41.57.24,1.51.77,2.36.31s.22-1,.15-1.41.18-.58.16-.78a9.7,9.7,0,0,0,3-.63s.11-.31.15-.31h.32c.23-.39,0-.91.15-1.42.12-.34.64-.51.79-.78s0-.48.15-.78a6.41,6.41,0,0,0,2.82-.32c.32-.18.49-.72.79-.94.13-.1.3.06.47,0,1-.39.33-1.41,0-1.88.54-.14,1.56-.3,1.72-.78.09-.26-.12-.72,0-.94h.16a7.81,7.81,0,0,0,1.57-1.41c.16.07.45-.07.62,0,.39.13.47.94,1.41.63.12,0,.3-.4.47-.48-.14-.23,0-.57-.15-.78s-.87-.43-.94-.62.09-.32,0-.48c1.47-.38,1.75-.31,1.56-2,.53-.34,1.05-.42,1.57-.79.16-.11.13-.34.31-.47-.11-.73-.3-1.71.32-2,1.14-.62,1.5.36,2,.47s.73-.25,1.09-.32c0-.37.19-.25.16-.62,0-.15-.35-.5-.31-.79,0-.07.45-.44.47-.47.06-.18-.09-.3,0-.47-.25-.12-.68-.32-.94-.47a2.35,2.35,0,0,0,0-2.35,15.13,15.13,0,0,0,1.56.78s.79,0,.94,0a11.68,11.68,0,0,1,.79-1.88c.4-.29,1-.06,1.41-.31s.13-.89,0-.78c.07-.26-.09-.55,0-.79,0-.07.28-.15.31-.31a3.55,3.55,0,0,0,2.19-.31c.13-1.13.14-1.6-.62-2.2-.08-.06-.44-.22-.47-.31-.12-.34,0-.74,0-1.1.25-.07.25.13.31-.16.26.12.52-.11.78,0s.14.67.32.79a1.55,1.55,0,0,0,2.35-.63c.19-.61-.08-.59-.16-1.1h-.31l.16-1.25a4.69,4.69,0,0,1-.94,0c-.1-.27.09-.52,0-.78,0-.11-.42-.22-.48-.32-.16-.27,0-.48-.15-.78.17-.09.28-.43.47-.47s.37.07.47,0c.29-.21.45-1,.78-1.1a6,6,0,0,1,1.41,0c.25-.84.53-1.52.79-2.19-.12-.08-.17-.55-.32-.63-.3-.17-.7-.16-.94-.31-.91-.59,1-1,1.41-1.41.15-.15,0-.48.16-.63-.17,0-2.13-.43-2.19-.47a13.88,13.88,0,0,1-.63-1.41,4,4,0,0,0,1.41-.78c-.23-.21-.22-.6-.47-.79s-.36-.08-.63-.15c0,0-.12-.58-.15-.79.49-.23.84-.39,1.25-.62-.08-.23.08-.57,0-.79s-.41-.22-.47-.31a8.88,8.88,0,0,1-.47-1.26c-.08.26-.16-.47-.16-.47.67-.39.18-1.31-.62-1.25l-.32.31c-.3.15-.52.2-.78.32,0,0,0,1,0,.94.09.19.4.32.47.47.16.33.06.64.16.94-.35-.3-.63-.47-.94-.78-.27.09-.52-.1-.79,0s-.43.71-.63.78-.51-.1-.78,0l-.16-.32c-.07.24-.15-.59-.15-.62s.45-.28.47-.32c.11-.39-.19-.59-.16-.78h-.31c-.21.07-.41.79-.63.94s-.36,0-.47,0-.51.43-.63.47a9.23,9.23,0,0,1-3,.31,5,5,0,0,0-.47,1.42s-.47,0-.47,0a16.61,16.61,0,0,1-.16-1.73,5.29,5.29,0,0,1,.94-.15,9.7,9.7,0,0,0-.31-2.36,2.21,2.21,0,0,0,1.56,0l.16-.31a3.69,3.69,0,0,1,1.1,0c0-.15.21-.31.15-.63-.12-.65-1-1.25-1.41-1.72-.16.23,0,.39-.15.63s-.31,0-.47.15-.33.6-.47.79c0,0-.43-.12-.47-.16s-.1-.42-.16-.63c-.17,0-.25-.29-.31-.31-.59-.2-.91.21-1.26.31l-.16-.15a5.41,5.41,0,0,0-.15-1.73c-.12,0-.53.07-.63,0-.13.2-.54.37-.63.63Zm-.47,6.58c-.08.17-.43.35-.47.47a7.79,7.79,0,0,0-.15,1.26c-.54.18-1.08.42-1.57.62.4.64.59,1.21,1.25,1.57,2.84,1.53,1.42-2.41,1.26-3.92Zm-28.52,6.11a6.54,6.54,0,0,1,1.1,2.67c.16,0,.39.3.47.31.87.16,1.43-.47,1.88.63.26.65,0,1.85.78,1.41.24-.13.27-1.42.32-1.72a5.17,5.17,0,0,1-2.51-1.42,4.58,4.58,0,0,0,.15-.47,25.36,25.36,0,0,0-2.19-1.41ZM89.59,91.75c.26.57.25,1.48,1.41,1.1.11,0,.3-.39.47-.47a2.61,2.61,0,0,1,0-.79c-.15-.11-.52-.58-.63-.62s-.32.09-.47,0c-.22.26-.56.51-.78.78Zm3.44,13c0,.07,0,.39,0,.47.17.08.48.43.63.47,1.68.38,1-1.21.78-1.73a2.15,2.15,0,0,1-.62,0c-.2.25-.59.53-.79.79ZM91.47,117a4.22,4.22,0,0,1,0,.94c1.54.39,1,.8,1.41-.78-.14-.11-.27-.1-.32-.31-.26-.08-.42,0-.62-.16,0,.09-.38.24-.47.31Zm-80.71,5.49c.22.06.86.88,0,.62-.22-.06-.44-.75,0-.62Zm1.41,0c0,.09.44.22.47.31.08.29,0,.39-.16.47,0,0,.26.76.31.94-.23-.16-.35-.07-.62-.15,0-.21-.3-.36-.32-.47-.08-.45.27-.83.32-1.1Z"/></g><g id="Z"><path id="Circular" class="cls-1" d="M296.26,0,268.33,27.29H535.22L464,129.85v19.39H562a205.86,205.86,0,0,0,8.57-28.11H509L571,30.6A205.71,205.71,0,0,0,561.9,0Z"/></g><g id="CU"><path id="U" class="cls-1" d="M461.56,35.33v73.3q0,12.47-5.31,21.57A34.36,34.36,0,0,1,441,144.09q-9.91,4.77-23.46,4.77-20.46,0-32.23-10.62t-12-29.07V35.33h27.16v74.38q.45,18.37,17.07,18.38,8.38,0,12.69-4.62t4.31-15V35.33Z"/><path id="C" class="cls-1" d="M319.39,129.47q9.33,0,15.49-5.43a18.55,18.55,0,0,0,6.56-13.44h23.48a36.56,36.56,0,0,1-6.46,19.34,42.36,42.36,0,0,1-16.41,14.2,48.81,48.81,0,0,1-22.35,5.23q-23.29,0-36.92-15.08T269.14,92.66V90.09q0-25.34,13.53-40.56T319.59,34.3q19.8,0,32.26,11.54t13.07,30.3H341.44a22.87,22.87,0,0,0-6.51-15.69,21,21,0,0,0-15.54-6.15q-12.11,0-18.67,8.77t-6.66,26.61v4q0,18.06,6.51,26.92T319.39,129.47Z"/></g><g id="B"><path id="Full" class="cls-1" d="M255.2,83.94q-6.62-9.07-18.71-12.36,10.66-4.52,16.2-12.72a32.26,32.26,0,0,0,5.54-18.46q0-20.1-13.23-30.25T206.79,0H159.88V149.24H213.7q22.23-.84,34.63-11.2,13.48-11.28,13.49-32.31Q261.82,93,255.2,83.94Zm-74-63h25.23q13.32,0,19.64,4.92t6.3,16q0,10-6.82,15.54t-18.92,5.48H181.21ZM229.1,122.55q-6.87,6.06-19.07,6H181.21V81.94h31Q236,82.45,236,105.73,236,116.5,229.1,122.55Z"/></g></svg>